<?xml version="1.0" encoding="UTF-8" standalone="no"?>
<!-- Created with Inkscape (http://www.inkscape.org/) -->

<svg
   xmlns:dc="http://purl.org/dc/elements/1.1/"
   xmlns:cc="http://creativecommons.org/ns#"
   xmlns:rdf="http://www.w3.org/1999/02/22-rdf-syntax-ns#"
   xmlns:svg="http://www.w3.org/2000/svg"
   xmlns="http://www.w3.org/2000/svg"
   version="1.1"
   width="300"
   height="300"
   viewBox="0 0 84.666667 84.666668"
   id="svg2"
   xml:space="preserve"
   style="fill-rule:evenodd"><metadata
   id="metadata20"><rdf:RDF><cc:Work
       rdf:about=""><dc:format>image/svg+xml</dc:format><dc:type
         rdf:resource="http://purl.org/dc/dcmitype/StillImage" /><dc:title></dc:title></cc:Work></rdf:RDF></metadata>
 <defs
   id="defs4"><style
     type="text/css"
     id="style6" /></defs>
 <polygon
   points="143.486,58.0002 143.486,136.605 64.881,136.605 64.881,58.0002 "
   transform="matrix(1.0771156,0,0,1.0771183,-69.884339,-62.473077)"
   id="_153746720"
   style="fill:#d70200;fill-opacity:1" /><path
   d="m 2.0971423,1.5677455 80.9743197,0 0,81.5038185 -81.5036143,0 0,-81.5038185 0.5292946,0 z m 0.5292946,80.4455495 79.3867591,0 0,-79.3868499 -79.3867591,0 0,79.3868499 z"
   id="_153687800"
   style="fill:#ffffff;fill-rule:nonzero" /><path
   d="m 28.042703,58.263267 c 0.09963,-0.17934 0.279296,-0.278973 0.498597,-0.338969 0.199051,-0.03985 0.398532,0 0.578303,0.119668 0.199159,0.119776 0.299007,0.259155 0.35868,0.478456 0.03996,0.219625 0,0.398965 -0.119668,0.598447 -0.119668,0.17934 -0.278865,0.299008 -0.498489,0.338969 -0.219301,0.03985 -0.418352,0 -0.598122,-0.119668 -0.17934,-0.119775 -0.278866,-0.279296 -0.318827,-0.498598 -0.03985,-0.199482 0,-0.398964 0.09953,-0.578305 z m -2.552333,-1.953892 0.618264,-0.69808 -0.278865,-0.259155 0.159198,-0.199052 0.299438,0.259155 0.498166,0.438495 0.279188,0.239336 -0.159521,0.199159 -0.278973,-0.239013 -1.714768,1.974035 0.259154,0.239012 -0.159628,0.179341 -0.278973,-0.219302 -0.618157,-0.53802 c -0.279296,-0.239336 -0.498597,-0.498491 -0.598122,-0.757645 -0.119668,-0.259586 -0.05999,-0.538452 0.199159,-0.837567 0.09985,-0.119668 0.199481,-0.199483 0.319149,-0.259155 0.119667,-0.06 0.259154,-0.09985 0.39864,-0.09985 0.13981,0.02014 0.299331,0.06 0.478778,0.13981 0.17934,0.09953 0.35868,0.239013 0.577873,0.438495 z m -0.159198,0.17934 c -0.05999,-0.07981 -0.159521,-0.139487 -0.279296,-0.199482 -0.09952,-0.05967 -0.239012,-0.07938 -0.398533,-0.05967 -0.159628,0.02014 -0.299115,0.119668 -0.458636,0.319151 -0.159628,0.199159 -0.2193,0.398641 -0.159628,0.577981 0.06,0.159629 0.17934,0.319258 0.35911,0.458637 l 0.936983,-1.096614 z m -2.053736,-1.734591 c 0.259046,-0.199483 0.418675,-0.418784 0.5182,-0.618266 0.09996,-0.219194 0.139917,-0.398642 0.119775,-0.577982 -0.01982,-0.17934 -0.09963,-0.338861 -0.199481,-0.458637 -0.09963,-0.119668 -0.219301,-0.199482 -0.398641,-0.259154 -0.159628,-0.06 -0.35911,-0.06 -0.578303,0 -0.219301,0.05967 -0.458636,0.17934 -0.71779,0.398641 -0.259154,0.219301 -0.438494,0.418784 -0.538127,0.637977 -0.07971,0.199483 -0.119668,0.398965 -0.09985,0.578305 0.03985,0.179448 0.09985,0.319258 0.199482,0.438495 0.159521,0.19959 0.398533,0.299116 0.697648,0.319258 0.299438,0 0.638299,-0.13981 0.997086,-0.458637 z m 0.498489,0.598016 c -0.199482,0.179448 -0.458636,0.279297 -0.737501,0.338969 -0.279296,0.03996 -0.578411,0.02014 -0.857707,-0.09953 -0.299008,-0.09952 -0.558162,-0.279297 -0.777355,-0.538451 -0.219731,-0.259155 -0.338968,-0.538452 -0.399071,-0.857279 -0.05956,-0.299008 -0.03985,-0.578304 0.0601,-0.85717 0.09953,-0.279297 0.239012,-0.498598 0.458205,-0.678262 0.219624,-0.17934 0.458636,-0.299116 0.757751,-0.338969 0.279296,-0.05967 0.558484,-0.01982 0.857599,0.07981 0.299008,0.119667 0.53802,0.299008 0.757643,0.558593 0.219301,0.259155 0.35868,0.538021 0.418783,0.837029 0.05967,0.319258 0.03985,0.598554 -0.0601,0.87742 -0.09953,0.279297 -0.259046,0.498491 -0.478347,0.677831 z m -5.463346,-4.605758 0.758074,-0.458637 0.139379,0.219301 c -0.159521,0.09996 -0.239335,0.259478 -0.279296,0.458637 -0.01971,0.199483 0.02014,0.398965 0.139917,0.578305 0.09953,0.159629 0.238904,0.279297 0.418352,0.359111 0.159521,0.07938 0.359002,0.119345 0.598014,0.07938 0.239443,-0.03953 0.478778,-0.139487 0.737932,-0.299008 0.319257,-0.219301 0.518308,-0.478456 0.637976,-0.757753 0.09963,-0.299008 0.05967,-0.577874 -0.119668,-0.877313 -0.199051,-0.278973 -0.478347,-0.458313 -0.857276,-0.498167 l 0.02014,-0.279297 c 0.478455,0.09996 0.857276,0.338969 1.11643,0.737934 0.159629,0.239013 0.259154,0.498167 0.299008,0.797606 0.03996,0.31872 0,0.598016 -0.139379,0.87699 -0.119775,0.259478 -0.319257,0.49849 -0.578411,0.67783 -0.259046,0.159629 -0.538343,0.259586 -0.837458,0.279297 -0.299007,0 -0.577872,-0.06 -0.837457,-0.219193 -0.259154,-0.13981 -0.478347,-0.359112 -0.637976,-0.65812 -0.139486,-0.259154 -0.199481,-0.538451 -0.179339,-0.817425 l -0.279296,0 -0.119668,-0.199482 z m -1.65488,-3.070649 0.797604,-0.398534 0.119667,0.239336 c -0.15952,0.07982 -0.259154,0.239013 -0.299007,0.438495 -0.03996,0.199482 -0.02014,0.398641 0.07981,0.578412 0.07971,0.179341 0.199482,0.31872 0.378822,0.398534 0.159628,0.09996 0.358679,0.139487 0.598122,0.139487 0.239335,-0.01982 0.478347,-0.09953 0.757643,-0.259155 0.338969,-0.17934 0.558162,-0.418783 0.698079,-0.697649 0.139379,-0.279297 0.119237,-0.558594 -0.04028,-0.877421 -0.179448,-0.299008 -0.438602,-0.478348 -0.817423,-0.558162 l 0.03996,-0.279297 c 0.478778,0.139487 0.837457,0.418783 1.05665,0.817748 0.139917,0.259155 0.219301,0.538021 0.239443,0.837136 0,0.299008 -0.06,0.598447 -0.219301,0.857602 -0.139809,0.259155 -0.359002,0.458637 -0.638298,0.617835 -0.278973,0.13981 -0.55827,0.219624 -0.857277,0.199482 -0.299007,0 -0.578303,-0.09952 -0.817315,-0.279296 -0.259154,-0.159199 -0.438925,-0.398642 -0.578303,-0.717792 -0.119776,-0.259155 -0.159629,-0.538021 -0.09963,-0.817317 l -0.299007,-0.02014 -0.09996,-0.219301 z m 1.495575,-2.532197 -2.233076,-0.717792 -0.09996,0.02014 0.119668,0.358681 -0.259154,0.07981 -0.119668,-0.338969 -0.199158,-0.637977 -0.119668,-0.358681 0.259154,-0.07981 0.119668,0.338969 2.492337,-0.797606 -0.119667,-0.359004 0.239335,-0.07949 0.119775,0.35868 0.199051,0.638085 0.119668,0.338862 -0.239335,0.07981 -0.119668,-0.338969 -1.953888,0.638085 2.213365,0.717792 0.159198,-0.05967 -0.119344,-0.338969 0.259154,-0.09996 0.09963,0.359111 0.219193,0.637977 0.119667,0.35868 -0.259046,0.07981 -0.09963,-0.358681 -2.49223,0.817318 0.09952,0.338969 -0.239443,0.07981 -0.119667,-0.338969 -0.219193,-0.658119 -0.09963,-0.338969 0.259154,-0.07982 0.09963,0.359112 1.91425,-0.618266 z m -3.249981,-4.924585 2.591863,-0.458637 -0.07971,-0.378823 0.259046,-0.03985 0.07981,0.378823 0.09996,0.657688 0.07938,0.359111 -0.259154,0.03996 -0.07971,-0.359111 -0.976944,0.179663 c 0,0.139487 0.03985,0.259155 0.09996,0.299116 0.05956,0.05967 0.139379,0.09953 0.259046,0.139379 l 0.857276,0.279297 c 0.179771,0.05967 0.279296,0.199159 0.31915,0.418784 0.03996,0.199159 0.05967,0.378822 0.03996,0.558162 l -0.259585,0.05967 c 0,-0.01971 0,-0.03985 0,-0.03985 -0.01971,-0.01982 -0.01971,-0.03996 -0.01971,-0.05967 -0.01971,-0.07981 -0.03985,-0.139487 -0.07981,-0.159629 -0.03985,-0.05967 -0.139486,-0.119668 -0.299007,-0.17934 l -0.558269,-0.199483 c -0.17934,-0.05967 -0.299007,-0.159628 -0.338861,-0.279296 l -0.02014,0 c 0,0.119668 -0.01982,0.239443 -0.07981,0.359111 -0.03996,0.139487 -0.119344,0.239336 -0.219301,0.338969 -0.09952,0.09953 -0.239012,0.159521 -0.378821,0.17934 -0.159629,0.03985 -0.318826,0.02014 -0.478347,-0.03996 -0.139487,-0.05967 -0.279296,-0.17934 -0.378929,-0.318719 -0.119668,-0.159629 -0.199482,-0.359111 -0.239336,-0.598124 l -0.199158,-1.096614 -0.06,-0.359111 0.259154,-0.05967 0.06,0.378823 z m 0.119775,0.657796 c 0.03953,0.538451 0.299007,0.797606 0.797173,0.737934 0.279296,-0.03996 0.458636,-0.13981 0.53845,-0.319258 0.07981,-0.159521 0.07981,-0.378823 0,-0.657689 l -1.335623,0.239013 z m 1.335623,-5.164028 c 0.219193,0 0.398964,0.09963 0.558162,0.259154 0.139809,0.159629 0.219624,0.33897 0.199482,0.558271 0,0.219193 -0.07981,0.398964 -0.239336,0.558163 -0.159197,0.139809 -0.358787,0.219624 -0.57798,0.199482 -0.219301,0 -0.398963,-0.07981 -0.53845,-0.239013 -0.159628,-0.159629 -0.219193,-0.359111 -0.219193,-0.578305 0,-0.219301 0.09953,-0.398964 0.259046,-0.538451 0.159629,-0.159629 0.338969,-0.219301 0.558269,-0.219301 z m 1.535536,-3.210028 -0.07981,0.338861 -0.0601,0.358788 -0.259154,-0.03996 0.07981,-0.378822 -2.572044,-0.498167 -0.159629,0.757645 0.338969,0.05967 -0.05967,0.279297 -0.578304,-0.119668 0.518308,-2.711538 0.578304,0.119345 -0.03996,0.279189 -0.338861,-0.05956 -0.139486,0.737503 2.572044,0.498491 0.05967,-0.359004 0.259585,0.06 -0.0601,0.35868 -0.05956,0.319258 z m -0.53845,-2.93127 0.89713,0.259586 0.09996,-0.359112 0.259047,0.07981 -0.119668,0.35868 -0.179663,0.658119 -0.09963,0.33897 -0.259154,-0.07981 0.09963,-0.338969 -2.512049,-0.717792 -0.09996,0.338969 -0.259154,-0.05967 0.09996,-0.359003 0.239012,-0.777464 c 0.09985,-0.378823 0.239335,-0.65812 0.418675,-0.877421 0.199482,-0.219194 0.478778,-0.279297 0.857599,-0.159629 0.139487,0.03996 0.259154,0.09963 0.37893,0.179771 0.09952,0.07938 0.179339,0.17934 0.239012,0.318827 0.06,0.119668 0.07971,0.299008 0.07971,0.478348 -0.01971,0.199483 -0.05967,0.438926 -0.139379,0.717792 z m -0.239442,-0.05967 c 0.03996,-0.09953 0.0601,-0.219194 0.07981,-0.338862 0,-0.139487 -0.03985,-0.259154 -0.119668,-0.398964 -0.09963,-0.119345 -0.259154,-0.219302 -0.498597,-0.278974 -0.239012,-0.05999 -0.438493,-0.02014 -0.577872,0.09953 -0.139917,0.119775 -0.219732,0.299116 -0.259154,0.51874 l 1.375477,0.398534 z m 1.176425,-3.289843 -1.096611,-1.136575 -0.139487,0.319258 -0.259154,-0.09996 0.37893,-0.897131 0.239012,0.09952 -0.139487,0.31915 1.854255,1.91404 c 0.119775,0.119667 0.2193,0.239335 0.259154,0.338969 0.0601,0.09985 0.0601,0.239335 0,0.398964 -0.05967,0.139487 -0.159521,0.259155 -0.259154,0.338969 l -0.31915,-0.338969 c 0.13981,-0.07981 0.219301,-0.159629 0.239443,-0.239443 0.03985,-0.09953 0.02014,-0.219194 -0.07981,-0.338861 l -0.09963,-0.07981 -2.492661,0.239336 -0.09953,0.259154 -0.239012,-0.09952 0.498166,-1.236532 0.239335,0.09996 -0.139379,0.33897 1.635062,-0.13981 0.09952,0.02014 0.01971,-0.02014 -0.09953,-0.05967 z m 0.03996,-3.828294 3.03068,0.538344 0.17934,-0.31915 0.976944,0.578305 -0.239335,0.418783 -0.757751,-0.438494 -1.156284,2.013888 0.757751,0.418352 -0.259154,0.438926 -0.976944,-0.578305 0.17934,-0.299115 -1.774548,-2.153375 -0.159628,0.299115 -0.238905,-0.139486 0.17934,-0.319151 0.259154,-0.458637 z m 0.478347,0.777788 1.375908,1.674595 0.757751,-1.315915 -2.093806,-0.418676 -0.139378,-0.05967 -0.02014,0.01971 0.119667,0.09996 z m 4.107581,-3.868255 c 0.179339,0.139486 0.259154,0.319257 0.278972,0.538451 0.02014,0.219301 -0.05967,0.398642 -0.199481,0.577982 -0.139487,0.159521 -0.318827,0.239335 -0.538127,0.259478 -0.219624,0.01982 -0.398964,-0.03985 -0.578304,-0.179341 -0.159628,-0.159521 -0.239335,-0.339292 -0.259154,-0.558593 -0.01971,-0.219194 0.03985,-0.398534 0.17934,-0.558163 0.159629,-0.17934 0.338968,-0.259155 0.558269,-0.279297 0.199482,-0.01971 0.398964,0.03996 0.558485,0.199483 z m 2.153369,-2.572051 0.797281,0.997088 0.279188,-0.239443 0.159629,0.219301 -0.279296,0.219194 -0.53845,0.418783 -0.278865,0.219625 -0.17934,-0.199483 0.299007,-0.219301 -1.615242,-2.07356 -0.278973,0.219301 -0.17934,-0.199482 0.299007,-0.219302 0.53845,-0.438925 0.278973,-0.219194 0.159521,0.219194 -0.279296,0.219624 0.658225,0.857279 1.116323,-0.877313 -0.677829,-0.837568 -0.278973,0.219302 -0.159521,-0.199159 0.279189,-0.219194 0.538127,-0.438926 0.279296,-0.219193 0.179339,0.219193 -0.299115,0.219625 1.615028,2.053418 0.279188,-0.219194 0.179447,0.199483 -0.299115,0.239012 -0.53845,0.418676 -0.278865,0.219302 -0.159629,-0.19916 0.279297,-0.239335 -0.777786,-0.997089 -1.11643,0.877421 z m 4.386122,-2.292862 -1.215955,0.657796 0.07981,0.65812 0.299115,-0.179341 0.119237,0.239336 -0.797174,0.458314 -0.139809,-0.239013 0.299007,-0.159629 -0.358679,-3.09036 0.319149,-0.179771 2.512157,1.89422 0.318718,-0.17934 0.119775,0.239336 -1.236097,0.677938 -0.119776,-0.219624 0.319257,-0.17934 -0.518739,-0.398642 z m -1.415437,-1.036942 0.159628,1.435584 1.036616,-0.577982 -1.176102,-0.877421 -0.04028,-0.09985 -0.01971,0.02004 0.03985,0.09963 z m 3.469282,-0.438495 0.398963,0.857171 0.338968,-0.139379 0.09953,0.239336 -0.338968,0.139487 -0.618157,0.278865 -0.338968,0.159629 -0.09953,-0.239012 0.31915,-0.159629 -1.056759,-2.392711 -0.33886,0.159629 -0.09996,-0.259154 0.33886,-0.139918 0.737932,-0.338861 c 0.338968,-0.139487 0.657795,-0.219302 0.956802,-0.219302 0.279296,0 0.498597,0.17934 0.658117,0.538452 0.05967,0.139487 0.09963,0.279296 0.09963,0.398641 0.02014,0.13981 -0.01982,0.279189 -0.07981,0.398965 -0.05967,0.139379 -0.179339,0.259154 -0.318826,0.378822 -0.159628,0.119668 -0.378821,0.239013 -0.658117,0.338969 z m -0.09953,-0.219301 c 0.09953,-0.02014 0.219193,-0.07981 0.318826,-0.159521 0.09985,-0.07981 0.179663,-0.179771 0.219624,-0.338969 0.03985,-0.139487 0.01971,-0.338969 -0.09996,-0.558594 -0.09953,-0.219301 -0.259154,-0.35868 -0.438494,-0.378499 -0.199482,-0.02014 -0.378822,0.01982 -0.578411,0.119345 l 0.578411,1.316238 z m 2.452377,-1.116756 c 0.07981,0.31915 0.199482,0.558163 0.338968,0.737934 0.159521,0.17934 0.319149,0.299008 0.478778,0.338969 0.17934,0.05967 0.338537,0.05967 0.498166,0.01971 0.139379,-0.03985 0.279296,-0.119668 0.398964,-0.239336 0.119344,-0.139486 0.219193,-0.299115 0.259154,-0.538128 0.03985,-0.219194 0.01971,-0.49849 -0.0601,-0.81764 -0.09953,-0.318827 -0.219193,-0.577982 -0.35868,-0.757753 -0.139379,-0.159198 -0.299007,-0.278866 -0.478347,-0.318827 -0.179771,-0.059996 -0.339399,-0.059996 -0.498597,-0.02014 -0.239335,0.0601 -0.438817,0.239443 -0.558592,0.498598 -0.139379,0.279297 -0.139379,0.637977 -0.01971,1.096614 z m -0.757643,0.199482 c -0.0601,-0.259154 -0.0601,-0.538451 0.02014,-0.817317 0.07938,-0.279297 0.219193,-0.51874 0.438494,-0.737934 0.219193,-0.219301 0.498489,-0.3788224 0.817315,-0.4586369 0.338968,-0.079815 0.658118,-0.099526 0.957125,-0.019819 0.299115,0.079491 0.53845,0.2193009 0.757751,0.4187839 0.199481,0.219301 0.338968,0.438495 0.418674,0.717468 0.07981,0.259478 0.05967,0.538344 -0.02014,0.817641 -0.07971,0.278973 -0.219193,0.538451 -0.438493,0.73761 -0.219193,0.219625 -0.498489,0.378823 -0.817316,0.458637 -0.338968,0.09996 -0.638406,0.09996 -0.957125,0.02014 -0.299115,-0.07981 -0.53845,-0.219301 -0.75775,-0.418783 -0.199482,-0.199482 -0.338969,-0.438495 -0.418675,-0.717792 z m 5.363389,-2.8711663 1.395727,2.7313563 0.359002,-0.03953 0.139487,1.136575 -0.478347,0.05956 -0.119776,-0.877313 -2.273037,0.279297 0.09963,0.87699 -0.498165,0.05999 -0.139918,-1.136468 0.359111,-0.03996 0.657794,-2.7115372 -0.338968,0.039853 -0.03985,-0.2591547 0.378822,-0.059996 0.498489,-0.059672 z m -0.318826,0.8572784 -0.518631,2.0937029 1.515394,-0.179341 -0.917272,-1.9341809 -0.03996,-0.1398099 -0.03953,0 0,0.1596289 z m 2.970792,0.5186329 c 0,0.318827 0.05956,0.577981 0.159521,0.797283 0.09963,0.199482 0.219301,0.359003 0.378822,0.438818 0.159305,0.09952 0.299115,0.139486 0.458636,0.139486 0.159305,0 0.318826,-0.05967 0.458635,-0.139486 0.159306,-0.09996 0.278973,-0.239336 0.37893,-0.458637 0.09952,-0.199483 0.139379,-0.478349 0.139379,-0.817318 -0.02014,-0.3392921 -0.06,-0.5984467 -0.159521,-0.7976059 C 42.837317,9.2738807 42.697507,9.1343939 42.558128,9.0348681 42.3985,8.9550537 42.239302,8.9152003 42.079673,8.9152003 c -0.259477,0 -0.478777,0.1196678 -0.677936,0.3389691 -0.199482,0.2393357 -0.299331,0.5980161 -0.279189,1.0767956 z m -0.777462,0 c 0,-0.259478 0.05967,-0.5384519 0.199051,-0.7777875 0.139918,-0.2591547 0.359111,-0.458637 0.618265,-0.618266 0.278865,-0.159198 0.578303,-0.2390125 0.917271,-0.2591546 0.338969,0 0.637976,0.079814 0.916949,0.2193013 0.259154,0.1398099 0.478778,0.3392922 0.638299,0.5984469 0.139486,0.2390125 0.2193,0.4981672 0.2193,0.7774639 0.01971,0.279297 -0.0601,0.538452 -0.199481,0.797606 -0.139487,0.259155 -0.358788,0.458637 -0.618265,0.617835 -0.259154,0.159629 -0.57798,0.239336 -0.916948,0.239336 -0.31915,0.02014 -0.637976,-0.05957 -0.917272,-0.199052 -0.259154,-0.159628 -0.478778,-0.359111 -0.618157,-0.598446 -0.159197,-0.259155 -0.239012,-0.51831 -0.239012,-0.797283 z m 5.861987,0.119344 0,0.02014 c 0.219193,0.03985 0.398532,0.139487 0.538019,0.278866 0.13981,0.139918 0.199482,0.338969 0.17934,0.578413 -0.01971,0.279297 -0.159198,0.49849 -0.398533,0.637977 -0.239443,0.13981 -0.518308,0.199482 -0.817423,0.159521 l -1.535428,-0.199482 0.02014,-0.259155 0.358679,0.0601 0.319149,-2.6120114 -0.35911,-0.039961 0.03996,-0.2594778 1.455722,0.179771 c 0.378821,0.039853 0.637975,0.1591981 0.777462,0.3187194 0.119667,0.1596289 0.17934,0.3389691 0.17934,0.498598 -0.01982,0.1793402 -0.09963,0.3389688 -0.219301,0.4586368 -0.139487,0.119668 -0.318826,0.17934 -0.538019,0.17934 z m -0.977375,1.336058 0.279296,0.03985 c 0.17934,0.01982 0.35868,-0.02014 0.498597,-0.119668 0.159521,-0.09952 0.239012,-0.259154 0.239012,-0.438495 0.03985,-0.259154 -0.01982,-0.438925 -0.17934,-0.538451 -0.139486,-0.09953 -0.299115,-0.13981 -0.458636,-0.159629 l -0.219301,-0.03985 -0.159628,1.256243 z m 0.199482,-1.515398 0.219301,0.02014 c 0.17977,0.01971 0.338968,-0.02014 0.458635,-0.119668 0.119668,-0.09996 0.199482,-0.2196241 0.199482,-0.3789299 0.01982,-0.1196678 -0.02014,-0.2393356 -0.09952,-0.3590035 C 46.107116,9.3137341 45.96763,9.2541694 45.768148,9.2343504 L 45.548955,9.1944971 45.42918,10.270969 z m 3.728435,0.03985 -0.05967,0.119776 -1.25624,1.714449 c -0.07981,0.09996 -0.159521,0.159629 -0.239012,0.219625 -0.09985,0.05967 -0.199481,0.07981 -0.33886,0.03953 -0.09996,-0.01982 -0.19959,-0.07938 -0.299438,-0.139487 l 0.33886,-0.458637 c 0.03996,0.07981 0.09996,0.119668 0.159629,0.13981 0.09952,0.01982 0.199482,-0.02014 0.279296,-0.159521 l 1.435579,-1.9143625 -0.338968,-0.079491 0.05967,-0.2594778 0.359111,0.099957 0.478347,0.1196679 0.279296,3.0706494 0.318826,0.07938 -0.07981,0.239444 -1.315912,-0.33897 0.07981,-0.259154 0.338968,0.09953 -0.199482,-2.193229 0.02014,-0.119344 -0.02014,-0.02014 z m 3.369649,2.831314 -1.295662,-0.498598 -0.438925,0.478456 0.319149,0.119667 -0.09985,0.239444 -0.877096,-0.338969 0.07949,-0.239444 0.338968,0.119776 2.113839,-2.273151 0.35868,0.139918 0.179339,3.170175 0.31915,0.119667 -0.09996,0.239013 -1.315804,-0.498167 0.09996,-0.259155 0.338861,0.139487 -0.02014,-0.658119 z m -0.119668,-1.754411 -0.996655,1.056761 1.096612,0.418353 -0.0601,-1.455295 0.02014,-0.09963 -0.02014,0 -0.03985,0.07981 z m 5.044671,1.774553 -0.418782,0.777464 -0.239335,-0.119776 c 0.07981,-0.159198 0.07981,-0.338861 0,-0.538344 -0.05967,-0.199159 -0.199159,-0.338969 -0.378822,-0.438602 -0.179447,-0.09953 -0.358787,-0.139379 -0.538127,-0.119668 -0.199482,0.02014 -0.378821,0.07981 -0.578303,0.239443 -0.17934,0.13938 -0.359111,0.338862 -0.498597,0.617835 -0.159521,0.339293 -0.219193,0.65812 -0.17934,0.97727 0.03996,0.299116 0.219301,0.538128 0.518308,0.697649 0.319257,0.159629 0.637976,0.159629 0.997086,0 l 0.119668,0.279297 c -0.458636,0.139487 -0.917272,0.119668 -1.335947,-0.09996 -0.259154,-0.139379 -0.478455,-0.31872 -0.658117,-0.577874 -0.17934,-0.239444 -0.278973,-0.518741 -0.299115,-0.817749 -0.01971,-0.299008 0.03996,-0.577981 0.179339,-0.876989 0.139918,-0.259586 0.339399,-0.478779 0.598553,-0.638408 0.259154,-0.159198 0.53802,-0.239013 0.837458,-0.239013 0.299007,0.01982 0.598122,0.09953 0.876987,0.278974 0.239335,0.159521 0.438925,0.359003 0.558592,0.6383 l 0.239012,-0.13981 0.199482,0.09996 z m -0.199482,3.808151 -0.278973,-0.219193 -0.299438,-0.219301 0.179771,-0.199483 0.278973,0.219302 1.615242,-2.05385 -0.598445,-0.478456 -0.199159,0.259155 -0.239335,-0.159521 0.378822,-0.478456 2.173081,1.694738 -0.35868,0.478779 -0.239335,-0.179663 0.199482,-0.259155 -0.578411,-0.478456 -1.61492,2.07356 0.279296,0.219302 -0.15952,0.219193 -0.299115,-0.239335 -0.239336,-0.19916 z m 2.632148,1.096615 2.332709,-0.319151 0.07981,-0.07981 -0.259154,-0.259155 0.199051,-0.17934 0.239443,0.239444 0.478347,0.498167 0.259585,0.259478 -0.199482,0.199159 -0.259154,-0.278974 -1.874504,1.814406 0.259154,0.278974 -0.199159,0.17934 -0.259154,-0.278974 -0.458636,-0.478348 -0.259046,-0.259155 0.199051,-0.179771 0.239443,0.259155 1.495144,-1.435583 -2.31289,0.338969 -0.139487,0.119667 0.259154,0.259155 -0.17934,0.179771 -0.259154,-0.259154 -0.458635,-0.47878 -0.259154,-0.279296 0.179339,-0.179341 0.259154,0.279297 1.894216,-1.834548 -0.259154,-0.259154 0.17934,-0.17934 0.259154,0.259154 0.478778,0.498491 0.239442,0.259154 -0.17977,0.17934 -0.259154,-0.278866 -1.455291,1.395623 z m 4.126968,1.694738 -0.797173,0.637977 0.617833,0.777464 0.259155,-0.219194 0.15952,0.199482 -0.71779,0.578305 -0.15952,-0.17934 0.239335,-0.219624 -0.618157,-0.757753 -0.93709,0.757753 0.797604,0.976946 0.259154,-0.219301 0.15952,0.199482 -0.5182,0.418784 -1.595208,-1.974035 0.199159,-0.159629 0.239335,0.279297 2.033702,-1.654777 -0.239012,-0.279297 0.199051,-0.159629 1.555247,1.89422 -0.478347,0.398965 -0.159629,-0.199482 0.239443,-0.199483 -0.737932,-0.897131 z m 1.595101,5.483178 c -0.199482,0.09953 -0.398533,0.119668 -0.598015,0.05967 -0.219301,-0.05967 -0.378821,-0.199482 -0.478455,-0.378822 -0.09996,-0.199159 -0.119667,-0.398642 -0.06,-0.617835 0.06,-0.19959 0.199482,-0.359111 0.398964,-0.458637 0.179339,-0.09996 0.378821,-0.119776 0.598122,-0.0601 0.199051,0.0601 0.358679,0.199482 0.458636,0.378822 0.09952,0.199482 0.119667,0.399072 0.05967,0.598124 -0.05967,0.219624 -0.199482,0.379253 -0.378929,0.478779 z m 3.569238,4.007742 -0.837458,0.299008 -0.07981,-0.259155 c 0.159629,-0.06 0.278865,-0.199482 0.35911,-0.378822 0.07938,-0.199483 0.07938,-0.398965 0,-0.598124 -0.0601,-0.179771 -0.159628,-0.339292 -0.319257,-0.458637 -0.139378,-0.09996 -0.338968,-0.17934 -0.578303,-0.199482 -0.239012,-0.02014 -0.498489,0.02014 -0.777462,0.139486 -0.35911,0.13981 -0.618264,0.338862 -0.797604,0.598447 -0.159521,0.259155 -0.199482,0.538021 -0.07971,0.857279 0.119668,0.338861 0.378822,0.558162 0.737824,0.67783 l -0.09985,0.279297 c -0.438494,-0.199482 -0.757751,-0.518632 -0.917272,-0.957127 -0.119775,-0.279297 -0.139486,-0.578413 -0.119775,-0.877421 0.04028,-0.299008 0.139917,-0.558163 0.339399,-0.797606 0.17934,-0.239336 0.418675,-0.418784 0.71779,-0.538451 0.278865,-0.09953 0.577872,-0.139379 0.876987,-0.07938 0.279296,0.05967 0.538451,0.17934 0.777786,0.378499 0.2193,0.219625 0.378821,0.478779 0.458635,0.797499 0.07981,0.279297 0.07981,0.558593 0,0.837567 l 0.278973,0.06 0.06,0.219302 z m -1.236421,1.814406 c -0.318827,0.05967 -0.558269,0.159198 -0.75732,0.278865 -0.179771,0.13981 -0.319257,0.299439 -0.37893,0.458637 -0.06,0.179771 -0.07971,0.33897 -0.03985,0.47878 0.01971,0.159198 0.09953,0.299008 0.219301,0.438494 0.119237,0.119668 0.278865,0.219302 0.498489,0.279297 0.239012,0.05967 0.498166,0.05967 0.837134,0 0.31915,-0.06 0.578304,-0.159629 0.757643,-0.299008 0.199482,-0.139918 0.31915,-0.279297 0.379253,-0.458637 0.05967,-0.159629 0.07938,-0.319258 0.03953,-0.478779 -0.03953,-0.259155 -0.199159,-0.458314 -0.458636,-0.617835 -0.259154,-0.139918 -0.617833,-0.179771 -1.096611,-0.07981 z m -0.139487,-0.777895 c 0.259154,-0.03985 0.53845,-0.01971 0.817746,0.07981 0.259154,0.09996 0.498166,0.259155 0.697648,0.498598 0.199482,0.239336 0.338861,0.518202 0.398533,0.857171 0.07981,0.319258 0.0601,0.638408 -0.03953,0.937093 -0.09985,0.279297 -0.259477,0.538451 -0.478778,0.718115 -0.219193,0.199159 -0.458636,0.318827 -0.737501,0.378822 -0.259154,0.05967 -0.53845,0.01982 -0.817746,-0.07971 -0.278866,-0.07981 -0.498166,-0.259154 -0.71779,-0.498598 -0.199051,-0.219193 -0.318826,-0.518632 -0.398533,-0.837459 -0.0601,-0.338969 -0.03996,-0.658119 0.05956,-0.957235 0.09996,-0.278866 0.259154,-0.538021 0.478777,-0.717684 0.219301,-0.199159 0.458636,-0.318827 0.737609,-0.37893 z m -0.578303,5.084644 0.06,1.355769 2.551902,-0.07981 -0.01971,-0.378823 0.278865,0 0,0.338862 0.02014,0.69808 0.01982,0.35868 -0.259154,0.02014 -0.01982,-0.378822 -2.611898,0.09953 0.01971,0.418783 -1.136572,0.03985 -0.01971,-0.538452 0.877418,-0.03985 -0.09996,-2.572159 -0.01982,-0.35868 0.279296,-0.02014 0,0.359111 2.611682,-0.07981 0,-0.359112 0.259477,-0.01971 0.01982,0.358681 0.02014,0.678261 0.01971,0.378499 -0.279296,0 0,-0.35868 -2.572044,0.07981 z m 0.458636,3.907678 1.714768,1.595212 0.09963,0.02014 0.06,-0.378822 0.259154,0.03985 -0.03985,0.35868 -0.07981,0.65812 -0.05967,0.37893 -0.259585,-0.03996 0.03996,-0.359111 -2.591864,-0.31872 -0.03996,0.358681 -0.259046,-0.01982 0.03985,-0.378823 0.07981,-0.658119 0.03985,-0.358681 0.259154,0.01971 -0.03985,0.378822 2.053736,0.239444 -1.714768,-1.595213 -0.159629,-0.01971 -0.05967,0.3785 -0.259154,-0.03953 0.03985,-0.359111 0.09963,-0.677938 0.03985,-0.358681 0.259154,0.03953 -0.03985,0.359111 2.591863,0.31915 0.03985,-0.359111 0.259585,0.01982 -0.03996,0.359111 -0.07981,0.677831 -0.03985,0.359111 -0.259154,-0.02014 0.03985,-0.378823 -1.994064,-0.239443 z m -0.956802,4.745675 0.358679,-1.336057 -0.518308,-0.378823 -0.07981,0.31915 -0.259154,-0.05967 0.239012,-0.917274 0.259585,0.05967 -0.07981,0.33897 2.472195,1.874078 -0.09963,0.378822 -3.110494,0.498491 -0.09953,0.338969 -0.259154,-0.07938 0.378822,-1.3562 0.239012,0.0601 -0.07949,0.35868 0.638083,-0.09953 z m 1.734587,-0.299115 -1.136573,-0.877313 -0.319149,1.136467 1.43558,-0.219193 0.119667,0.01971 0,-0.01971 -0.09952,-0.03996 z m -1.315912,3.708626 -0.09996,-0.07971 -1.495144,-1.495687 c -0.07981,-0.09952 -0.139917,-0.17934 -0.17934,-0.278866 -0.03996,-0.09996 -0.03996,-0.219624 0.01971,-0.338969 0.03985,-0.07981 0.09952,-0.17934 0.179339,-0.279296 l 0.398964,0.418783 c -0.07981,0.01971 -0.13981,0.07982 -0.159521,0.139379 -0.03996,0.07982 0,0.179771 0.09953,0.299116 l 1.674914,1.71488 0.139487,-0.318827 0.239335,0.09953 -0.139379,0.318827 -0.199482,0.458637 -3.070641,-0.17934 -0.139486,0.279296 -0.239335,-0.09996 0.558161,-1.256243 0.239335,0.119668 -0.139379,0.319257 2.193223,0.139379 0.119668,0.03996 0,-0.01982 z m -2.891302,2.133232 0.877419,2.153375 0.09952,0.0601 0.199482,-0.299116 0.219301,0.139487 -0.199482,0.299008 -0.35868,0.578412 -0.179447,0.318719 -0.239335,-0.139379 0.199482,-0.319258 -2.213365,-1.395622 -0.199482,0.31915 -0.219301,-0.13981 0.199482,-0.318827 0.35868,-0.578304 0.17977,-0.299008 0.219301,0.13981 -0.17934,0.318827 1.734587,1.096614 -0.877418,-2.173517 -0.139487,-0.09953 -0.199482,0.31915 -0.219193,-0.139487 0.199051,-0.299439 0.359111,-0.577874 0.17934,-0.319257 0.239442,0.139486 -0.199481,0.319151 2.213364,1.375587 0.199159,-0.298685 0.219624,0.139487 -0.199482,0.31872 -0.35911,0.578412 -0.17934,0.299008 -0.219301,-0.139487 0.17934,-0.31915 -1.694734,-1.056761 z m -1.574958,3.489433 0.17934,0.159629 -0.09953,0.119668 c -0.119775,0.139379 -0.17977,0.299008 -0.159628,0.478348 0.01971,0.17934 0.119667,0.318827 0.259154,0.418783 0.139486,0.09953 0.278865,0.119668 0.418674,0.09953 0.119776,-0.03985 0.239012,-0.119668 0.338969,-0.239336 0.119667,-0.139486 0.159628,-0.299115 0.139486,-0.458313 -0.01982,-0.13981 -0.09952,-0.279297 -0.219301,-0.378823 l 0.179448,-0.199482 0.558484,0.478348 -0.15952,0.199482 -0.17934,-0.05956 c 0.03942,0.278866 -0.0601,0.558162 -0.299438,0.797175 -0.17934,0.219624 -0.37893,0.339292 -0.598123,0.378823 -0.199158,0.06 -0.39864,0.02014 -0.558161,-0.09953 -0.17934,-0.119668 -0.279296,-0.259155 -0.299115,-0.418784 -0.02014,-0.159629 0.01982,-0.31915 0.07981,-0.478348 l 0.05967,-0.07981 -0.01971,-0.02014 -0.07981,0.07981 c -0.17934,0.119668 -0.35911,0.199482 -0.518308,0.239336 -0.179771,0.01982 -0.339291,-0.03985 -0.478778,-0.13938 -0.219301,-0.139917 -0.338968,-0.37893 -0.378821,-0.677938 -0.03996,-0.299008 0.119667,-0.637977 0.438816,-1.036942 0.219301,-0.259154 0.458313,-0.398641 0.697648,-0.458637 l -0.179339,-0.119775 0.179339,-0.199052 0.618265,0.51831 -0.159629,0.199482 c -0.139379,-0.09996 -0.299007,-0.13981 -0.458636,-0.119668 -0.179339,0.03985 -0.318826,0.139379 -0.478347,0.318719 -0.139809,0.199483 -0.199482,0.378931 -0.17934,0.558594 0.01971,0.199159 0.119237,0.338969 0.299008,0.458637 0.219301,0.139487 0.39864,0.17934 0.558161,0.09953 0.159629,-0.07971 0.299115,-0.179664 0.398641,-0.299008 l 0.09996,-0.119668 z m -3.349937,2.631723 0.598122,2.372999 -0.777462,0.657796 -0.159629,-0.199482 0.279296,-0.239012 -1.734587,-1.954324 -0.279296,0.239444 -0.159197,-0.199483 0.278865,-0.239012 0.498489,-0.438926 0.278973,-0.239336 0.159629,0.199483 -0.278973,0.239335 1.475433,1.694738 -0.638299,-2.39271 0.279296,-0.239013 2.292748,0.936985 -1.475002,-1.674919 -0.279296,0.239336 -0.159629,-0.199482 0.279297,-0.239336 0.199051,-0.17934 0.259154,-0.239013 0.17977,0.199052 -0.279296,0.239443 1.714876,1.974035 0.278865,-0.239444 0.179771,0.199483 -0.279296,0.239443 -0.478348,0.418353 -2.253325,-0.937093 z m -4.665419,3.649061 c -0.09996,-0.19959 -0.139809,-0.399072 -0.07981,-0.598123 0.05967,-0.219625 0.17934,-0.378823 0.378821,-0.47878 0.17934,-0.09952 0.378822,-0.119667 0.598123,-0.05967 0.199482,0.05967 0.35911,0.159629 0.478778,0.338969 0.09952,0.199483 0.139486,0.398534 0.07938,0.598016 -0.05967,0.219302 -0.17934,0.378931 -0.378822,0.478456 -0.179339,0.119668 -0.378821,0.139487 -0.598122,0.07981 -0.199482,-0.05967 -0.358679,-0.17934 -0.478347,-0.358681 z"
   id="_153687728"
   style="fill:#ffffff" /><path
   d="m 26.991007,48.935423 c -0.350816,0.460899 -0.491703,1.827331 0.182356,2.216063 0.525848,0.310857 0.92298,0.446035 1.78435,-0.06538 0.910485,-0.538774 2.414785,-3.803197 2.848001,-4.163816 l 2.189884,-1.840257 c -0.0377,-0.04222 -0.223825,-0.229534 -0.496335,-0.494828 0.04718,-0.04362 0.676752,-0.552023 0.727268,-0.624621 1.347472,1.479638 1.942471,2.067852 3.638389,3.318709 0.109004,0.08132 1.565911,1.517337 3.354461,2.080454 3.187293,1.012707 6.888693,0.841661 8.14224,0.471563 1.325068,-0.398965 3.603813,-1.221668 4.434054,-1.900683 0.555576,-0.444958 1.876336,-1.795449 2.266251,-2.390449 1.562033,-2.35178 2.00699,-5.552006 1.909726,-7.8942 -0.131839,-1.637327 -0.502259,-3.41188 -0.980713,-5.058363 -0.04782,-0.160275 -1.095858,-3.008714 -1.820864,-3.913817 -0.146703,-0.185372 -2.298888,-3.804382 -3.20248,-4.875145 -4.586789,-5.417043 -6.070193,-6.119648 -7.343882,-7.271733 0.777785,1.183968 4.398617,4.237922 6.86812,7.987586 1.293831,1.965633 2.37644,3.525516 2.787144,4.724348 0.418352,1.220914 1.209924,4.505479 1.31742,4.830337 l 0.327228,0.04524 0.164475,2.982541 0.247737,0.113959 -0.89336,3.318817 0.277788,0.134101 -1.795444,3.046306 0.209068,0.253877 -2.691388,2.002901 0.106311,0.307733 -2.524543,1.059346 0.10448,0.353403 -2.931909,-0.03792 -0.102218,0.258293 -2.646581,-0.595754 -0.05935,0.362127 -1.893031,-0.853832 -0.203251,0.266695 -1.837236,-1.057084 -0.121607,0.101464 -1.606949,-1.207988 -0.166414,0.105235 -1.415438,-1.416949 -0.163829,0.138732 -1.448505,-1.408224 -1.513024,1.678797 -0.720052,-0.525957 c -0.792326,0.78845 -0.514215,1.698938 -2.425126,3.106732 -1.979631,1.459172 -2.624176,1.991484 -2.883223,2.331638 z"
   id="_153687656"
   style="fill:#ffffff" /><path
   d="m 40.834528,21.523732 -5.643547,5.542096 22.4668,22.207379 c -0.03953,0.58703 -0.202821,1.027033 -0.552884,1.354584 -0.293298,0.270572 -0.931274,0.530481 -1.382693,0.428586 l -21.733069,-22.816813 -3.865983,3.792642 -3.115449,-3.120843 3.883001,-3.59499 -0.485563,-0.581429 1.23599,-1.207557 0.581427,0.552885 2.2404,-2.133233 6.37157,-0.423307 z"
   id="_153687584"
   style="fill:#ffffff" /><path
   d="m 40.787135,25.649956 -0.179448,-0.09952 -0.199482,-0.09996 -0.199481,-0.07981 -0.17934,-0.09953 -0.199051,-0.07981 -0.179771,-0.05967 -0.179339,-0.06 -0.159629,-0.07981 -0.17934,-0.03985 -0.159628,-0.05967 -0.17934,-0.03996 -0.159521,-0.03985 -0.159305,-0.01982 -0.159521,-0.03985 -0.159629,-0.02014 -0.139486,-0.01971 -0.159521,-0.02014 -0.159628,0 -0.139487,-0.01982 -0.458636,0 -0.139378,0.01982 -0.139918,0 -0.159521,0.02014 -0.09952,0.01971 -0.09963,0 -0.09996,0.02014 -0.09952,0.01982 -0.09953,0 -0.09996,0.02003 -0.09952,0.01982 -0.09953,0.02014 -0.09996,0.01971 -0.09963,0.02014 -0.09985,0.01982 -0.09963,0.03985 -0.09953,0.01982 -0.09996,0.02014 -0.09952,0.01971 -0.09953,0.03985 -0.09996,0.02014 -0.09953,0.03996 -0.09963,0.03985 -0.119668,0.01982 -0.09952,0.03985 -0.09996,0.03996 -0.119668,0.03985 -0.09952,0.03985 -0.09996,0.03996 -0.119344,0.03985 -0.09996,0.03996 -0.119668,0.03985 -0.119344,0.05967 -0.09996,0.03985 -0.119667,0.03996 -0.119345,0.03985 -0.259477,0.09953 -0.259154,0.09996 -0.259154,0.09963 -0.259154,0.07971 -0.259154,0.07981 -0.259154,0.07981 -0.259154,0.05967 -0.259477,0.07981 -0.259154,0.03985 -0.278973,0.05967 -0.259046,0.06 -0.259585,0.03996 -0.278865,0.03985 -0.259585,0.03996 -0.259154,0.01971 -0.278865,0.03985 -0.259154,0.01982 -0.259154,0.02014 -0.279297,0.02014 -0.259154,0.01971 -0.518308,0 -0.259477,0.01982 -1.036616,0 -0.239443,-0.01982 -0.278865,0 5.522695,26.458657 0.478778,-0.07981 0.458636,-0.07981 0.458205,-0.07971 0.418782,-0.09963 0.398964,-0.119668 0.39864,-0.09953 0.378822,-0.119776 0.35911,-0.119667 0.71779,-0.239336 0.338861,-0.119345 0.677936,-0.239443 0.338968,-0.09985 0.318827,-0.09963 0.33886,-0.07971 0.339399,-0.07982 0.318719,-0.05967 0.35911,-0.03996 0.338969,-0.01971 0.358679,0 0.35911,0.01971 0.35868,0.05967 0.35911,0.07981 0.378822,0.09996 0.358679,0.139487 0.399072,0.159521 0.398532,0.199159 0.398964,0.219625 c 0,-8.912939 0,-16.908172 0,-25.880676 l -0.219624,-0.139486 -0.239012,-0.159522 -0.199482,-0.119344 -0.219193,-0.13981 -0.199482,-0.119776 -0.199481,-0.09953 z m 3.090783,0 0.199051,-0.09952 0.199482,-0.09996 0.199481,-0.09953 0.17934,-0.07981 0.17934,-0.07981 0.179447,-0.05967 0.179663,-0.07981 0.17934,-0.06 0.17934,-0.03985 0.159628,-0.05967 0.159629,-0.03996 0.17934,-0.03985 0.159628,-0.03985 0.159521,-0.01982 0.139486,-0.02014 0.159629,-0.01971 0.159198,-0.02014 0.15952,-0.01982 0.578412,0 0.15952,0.01982 0.139487,0 0.139486,0.02014 0.09996,0 0.09952,0.01971 0.09953,0.02014 0.119667,0 0.09996,0.01982 0.09953,0.02003 0.09963,0.01982 0.09985,0.02014 0.07981,0.01971 0.119344,0.02014 0.09996,0.01982 0.09952,0.01971 0.09953,0.03996 0.199482,0.03985 0.09996,0.03985 0.09963,0.02014 0.09953,0.03996 0.09996,0.01971 0.09952,0.03996 0.119668,0.03985 0.09952,0.03996 0.09996,0.03985 0.119344,0.03985 0.09996,0.03996 0.119668,0.03985 0.09952,0.03996 0.119776,0.03985 0.09952,0.03985 0.119668,0.05967 0.119667,0.03996 0.119776,0.03985 0.259154,0.09953 0.239011,0.09996 0.259478,0.07981 0.259154,0.09953 0.259154,0.07981 0.278865,0.07981 0.518739,0.119345 0.259154,0.05999 0.279296,0.05967 0.259046,0.03985 0.259154,0.0601 0.278973,0.03985 0.259477,0.03996 0.259154,0.01971 0.278973,0.03985 0.259154,0.01982 0.259477,0.02014 0.259154,0.02014 0.278866,0 0.259154,0.01971 0.259584,0 0.259155,0.01982 0.777462,0 0.239335,-0.01982 0.53845,0 -5.523018,26.438515 -0.02014,0 -0.478455,-0.05967 -0.458636,-0.07981 -0.438494,-0.07971 -0.418674,-0.09963 -0.399072,-0.119668 -0.398533,-0.09953 -0.378821,-0.119776 -0.378929,-0.119667 -0.359003,-0.119668 -0.338968,-0.139487 -0.338969,-0.119668 -0.338968,-0.09953 -0.338968,-0.119775 -0.338861,-0.09985 -0.318826,-0.09963 -0.338968,-0.07971 -0.338968,-0.07982 -0.338861,-0.05967 -0.339399,-0.03996 -0.338968,-0.01971 -0.35868,0 -0.359003,0.01971 -0.358787,0.05967 -0.378821,0.07981 -0.359111,0.09996 -0.398532,0.139487 -0.378822,0.159521 -0.39864,0.199159 -0.398964,0.219625 c 0,-8.912939 0,-16.908172 0,-25.880676 l 0.219193,-0.159198 0.438925,-0.279296 0.219193,-0.119668 0.199481,-0.119776 0.19959,-0.09953 z m -1.555355,0.299116 c 2.392381,-1.615031 4.127076,-1.953892 5.742319,-1.794694 1.156283,0.13981 2.213041,0.458637 3.509135,0.997088 2.55201,1.076795 5.502875,1.136468 8.055209,1.0168 l -5.762353,27.614943 c -5.42317,-0.478456 -7.158188,-3.46929 -11.265337,-0.817317 l -0.278973,0.17934 -0.259154,-0.17934 c -4.087438,-2.651973 -5.842167,0.338861 -11.245518,0.837459 l -5.76203,-27.635085 c 2.532191,0.119668 5.482734,0.07981 8.054778,-1.0168 1.276382,-0.538451 2.352852,-0.857278 3.489424,-0.976946 1.61492,-0.17934 3.349507,0.159521 5.7225,1.774552 z"
   id="_153687512"
   style="fill:#ffffff" /><path
   d="m 15.513587,75.954936 0,-13.577938 4.113719,0 0,5.000952 0.05353,0 2.446668,-5.000952 4.758912,0 -3.89862,6.399267 4.27518,7.178671 -5.027868,0 -2.554272,-5.512046 -0.05353,0 0,5.512046 -4.113719,0 z m 13.013279,0 0,-13.577938 11.265337,0 0,13.577938 -4.194288,0 0,-10.190078 -2.876868,0 0,10.190078 -4.194181,0 z m 13.981069,0 0,-13.577938 4.866408,0 c 0.860292,0 1.640016,0.107496 2.339172,0.37656 0.672228,0.242029 1.263887,0.591554 1.747512,1.048359 0.457128,0.45713 0.833688,0.994719 1.075823,1.613416 0.268633,0.618158 0.376129,1.317316 0.376129,2.043078 0,0.726193 -0.08057,1.371387 -0.269064,1.989653 -0.214992,0.645625 -0.51066,1.183214 -0.967788,1.640343 -0.430092,0.456806 -0.994824,0.806331 -1.666944,1.075395 -0.699156,0.269064 -1.559448,0.403166 -2.554272,0.403166 l -0.806652,0 0,3.387968 -4.140324,0 z m 4.140324,-10.190078 0,3.414573 0.618588,0 c 0.484055,0 0.833256,-0.134532 1.10232,-0.403166 0.29556,-0.269064 0.430092,-0.699157 0.430092,-1.317854 0,-0.618158 -0.134532,-1.075287 -0.430092,-1.317316 -0.269064,-0.241705 -0.618265,-0.376237 -1.10232,-0.376237 l -0.618588,0 z m 13.335768,10.190078 0,-1.936013 -0.698724,0 c -1.828512,0 -3.2265,-0.430201 -4.221216,-1.26346 -0.96822,-0.833689 -1.451952,-2.124185 -1.451952,-3.871701 0,-1.58638 0.483732,-2.823235 1.451952,-3.710565 0.967788,-0.91415 2.338741,-1.344352 4.140216,-1.344352 l 0.779724,0 0,-1.693983 4.11372,0 0,1.693983 0.779724,0 c 1.774548,0 3.145932,0.430202 4.140648,1.344352 0.967896,0.88733 1.451952,2.124185 1.451952,3.710565 0,1.747516 -0.484056,3.038012 -1.451952,3.871701 -0.994716,0.833259 -2.393135,1.26346 -4.221216,1.26346 l -0.699156,0 0,1.936013 -4.11372,0 z m 4.11372,-8.738123 0,3.414465 c 0.75312,0 1.290816,-0.134424 1.640447,-0.403488 0.376129,-0.295669 0.537589,-0.725762 0.537589,-1.344028 0,-1.102323 -0.726084,-1.666949 -2.178036,-1.666949 z m -4.11372,0 c -1.451844,0 -2.177604,0.564626 -2.177604,1.666949 0,0.618266 0.161136,1.048359 0.51066,1.344028 0.37656,0.269064 0.914256,0.403488 1.666944,0.403488 l 0,-3.414465 z"
   id="_153687416"
   style="fill:#ffffff" />
</svg>