<?xml version="1.0" encoding="UTF-8" standalone="no"?>
<svg
   version="1.1"
   width="44.481602"
   height="41.495693"
   id="svg913"
   viewBox="0 0 44.481601 41.495693"
   sodipodi:docname="title2025.svg"
   inkscape:version="1.1.2 (b8e25be833, 2022-02-05)"
   xmlns:inkscape="http://www.inkscape.org/namespaces/inkscape"
   xmlns:sodipodi="http://sodipodi.sourceforge.net/DTD/sodipodi-0.dtd"
   xmlns="http://www.w3.org/2000/svg"
   xmlns:svg="http://www.w3.org/2000/svg">
  <sodipodi:namedview
     id="namedview10"
     pagecolor="#505050"
     bordercolor="#eeeeee"
     borderopacity="1"
     inkscape:pageshadow="0"
     inkscape:pageopacity="0"
     inkscape:pagecheckerboard="0"
     showgrid="false"
     fit-margin-top="0"
     fit-margin-left="0"
     fit-margin-right="0"
     fit-margin-bottom="0"
     inkscape:zoom="45.254834"
     inkscape:cx="23.003067"
     inkscape:cy="27.621359"
     inkscape:window-width="1920"
     inkscape:window-height="1017"
     inkscape:window-x="-8"
     inkscape:window-y="-8"
     inkscape:window-maximized="1"
     inkscape:current-layer="svg913" />
  <defs
     id="defs917">
    <clipPath
       clipPathUnits="userSpaceOnUse"
       id="clipPath2-0">
      <path
         d="M 0,595.276 H 841.89 V 0 H 0 Z"
         transform="translate(-500.02942,-167.12251)"
         id="path2-9" />
    </clipPath>
  </defs>
  <path
     id="path1-5"
     clip-path="url(#clipPath2-0)"
     style="fill:#941921;fill-opacity:1;fill-rule:nonzero;stroke:none"
     d="m -104.45567,289.89716 c -10.67,-0.169 -21.0155,0.52172 -31.5835,-1.38428 -19.268,-3.475 -37.11558,-10.91388 -52.14258,-24.62988 -31.356,-28.621 -44.7423,-62.83592 -37.6333,-101.69092 8.43,-46.079 46.19683,-75.000951 100.52783,-70.543951 1.868,17.767001 3.73668,35.544821 5.61768,53.444821 -0.956,0 -1.71866,-0.0246 -2.47266,0.004 -6.792,0.26 -13.81157,-0.26525 -20.33057,0.94775 -18.358,3.415 -29.78089,14.59512 -32.54589,33.01612 -2.803,18.67 4.70372,34.63292 20.84472,46.94092 8.922,6.804 18.98491,9.82352 29.64991,9.81152 4.743,-0.005 9.4873,-0.001 14.3833,-0.001 1.902,18.089 3.77306,35.89497 5.68506,54.08497 z m 8.904781,-10e-4 c -6.970001,-66.312 -13.906331,-132.30532 -20.840331,-198.278323 h 51.32373 c 5.054,48.090003 10.090825,96.019943 15.194825,144.585943 7.07,-0.427 13.978996,-0.25139 20.520996,-1.40039 6.724,-1.181 11.143582,-5.69284 12.496582,-12.50684 1.338,-6.74 -1.090929,-12.77795 -6.377929,-17.87695 -4.365,-4.209 -9.600755,-5.64726 -15.197755,-5.63526 -2.19,0.005 -4.380488,0.001 -6.625488,0.001 -1.906,-18.138 -3.769719,-35.86926 -5.636719,-53.63526 0.443,-0.081 0.724066,-0.16864 1.018066,-0.18164 10.824,-0.457 21.52463,0.9185 32.11963,5.0625 44.569,17.433 63.642556,63.76215 47.768556,100.11915 -11.251,25.769 -32.693521,38.40819 -61.457521,39.59619 -17.727,0.732 -35.647447,0.14441 -53.481447,0.14941 -3.531,10e-4 -7.062195,0 -10.825195,0 z M 53.028216,289.6247 72.824115,190.62176 32.21718,91.617367 H 53.747454 L 94.354389,190.62176 74.55849,289.6247 Z M -222.69787,61.059261 c -2.354,-0.1005 -4.677,-0.677828 -6.958,-1.798828 -8.414,-4.136 -10.90781,-15.234368 -9.52881,-21.026368 0.672,-2.822 2.27167,-4.975266 5.03467,-5.947266 4.395,-1.545 8.81372,-1.315746 13.13672,0.385254 0.425,0.168 0.87741,0.68007 1.00341,1.12207 0.557,1.957 0.9982,3.946192 1.5542,6.221192 -0.545,-0.328 -0.83811,-0.513082 -1.14111,-0.684082 -2.433,-1.37 -4.99908,-2.049059 -7.80908,-1.560059 -2.332,0.405 -3.66278,1.721098 -3.82178,4.100098 -0.24,3.611 0.67522,6.942977 2.82422,9.875977 1.522,2.077 3.65647,3.020918 6.20947,3.065918 2.395,0.042 4.43429,-0.854223 6.30029,-2.553223 0.498,1.964 0.88081,3.804914 1.44581,5.586914 0.382,1.207 0.0451,1.769926 -1.10889,2.148926 -2.402,0.788 -4.78712,1.163977 -7.14112,1.063477 z M 8.5496993,60.732601 c -1.013,0.021 -1.3146212,-0.341977 -1.5366212,-1.250977 -2.026,-8.31 -4.1036681,-16.606669 -6.15966808,-24.909669 -0.212,-0.857 -0.37861329,-1.724902 -0.57861329,-2.649902 0.323,-0.043 0.51166017,-0.08935 0.70166017,-0.08935 4.477,-0.006 8.9566175,-0.06528 13.4326171,0.01172 3,0.051 5.825325,0.830243 8.257325,2.698243 4.407,3.385 4.508668,9.100879 0.159668,12.525879 0.703,0.459 1.344312,0.840879 1.945312,1.275879 2.244,1.626 3.238614,3.870515 3.203614,6.603515 -0.029,2.33 -1.095434,4.073829 -3.294434,4.798829 -1.613,0.532 -3.356176,0.844738 -5.055176,0.906738 -3.687,0.134 -7.384684,0.0021 -11.0756837,0.0791 z m -189.6342793,-0.0029 c -0.981,0.03 -1.33546,-0.294328 -1.56446,-1.236328 -1.71,-7.058 -3.48781,-14.09895 -5.23681,-21.14795 -0.526,-2.12 -1.0251,-4.247852 -1.5791,-6.547852 2.466,0 4.77837,-0.02738 7.08837,0.03662 0.265,0.007 0.66447,0.476805 0.75147,0.799805 0.665,2.463 1.30307,4.935364 1.87207,7.422364 0.2,0.876 0.55614,1.219636 1.49414,1.202636 1.805,-0.033 3.61899,0.0013 5.41699,0.152344 6.241,0.523 10.36044,4.488922 11.16944,10.669922 0.605,4.622 -1.71131,7.929172 -6.34131,8.326172 -4.334,0.371 -8.7138,0.192266 -13.0708,0.322266 z m 159.246095,-0.0059 c -0.762,0.014 -1.072836,-0.212235 -1.256836,-0.990235 -1.177,-4.968 -2.430672,-9.915489 -3.638672,-14.875489 -1.047,-4.298 -2.06416,-8.603914 -3.13916,-13.086914 2.869,0 5.609609,-0.02017 8.349609,0.02783 0.314,0.005 0.699387,0.329375 0.921387,0.609375 4.072,5.149 8.124176,10.314075 12.1801762,15.476075 0.249,0.317 0.4918164,0.637543 0.7368164,0.956543 l 0.1538086,-0.09375 c -1.333,-5.596 -2.6651092,-11.190173 -4.0371092,-16.951173 2.2249997,0 4.2639686,0.08077 6.2929686,-0.03223 1.139,-0.062 1.5540821,0.318461 1.8090821,1.397461 1.93,8.18 3.92253139,16.344161 5.8945314,24.514161 0.235,0.974 0.4628438,1.949648 0.7148438,3.014648 -2.65600004,0 -5.168176,-0.02635 -7.680176,0.01465 -0.775,0.013 -1.2803204,-0.218821 -1.7783204,-0.840821 -3.9069995,-4.88 -7.8566685,-9.723914 -11.7846685,-14.586914 -0.175,-0.217 -0.255859,-0.511043 -0.380859,-0.769043 -0.121,0.105 -0.243746,0.208012 -0.364746,0.312012 1.308,5.247 2.617402,10.493695 3.962402,15.887695 -2.411,0 -4.684078,-0.02789 -6.955078,0.01611 z m -106.199705,-0.0029 c -0.853,0.013 -1.14262,-0.301266 -1.32862,-1.072266 -0.91,-3.779 -1.87196,-7.544918 -2.81396,-11.315918 -1.361,-5.442 -2.71892,-10.882911 -4.08692,-16.357911 0.202,-0.054 0.35105,-0.128441 0.49805,-0.127441 4.991,0.03 9.98717,-0.05312 14.97217,0.150879 2.619,0.107 5.05145,1.114742 7.08545,2.885742 4.13,3.596 4.0794,9.242555 -0.2666,12.143555 0.52,0.301 0.92643,0.519649 1.31543,0.764649 2.61,1.644 3.91334,4.036703 3.90234,7.095703 -0.009,2.299 -1.07488,4.065816 -3.25488,4.861816 -1.378,0.503 -2.88566,0.839231 -4.34766,0.886231 -3.888,0.126 -7.7838,0.02696 -11.6748,0.08496 z m -20.64112,-0.0073 c -0.773,0.014 -1.18564,-0.243344 -1.57764,-0.902344 -4.518,-7.595 -9.07086,-15.168954 -13.60986,-22.751954 -1.001,-1.673 -1.98103,-3.359027 -3.08203,-5.228027 2.758,0 5.30177,-0.02777 7.84277,0.03223 0.318,0.007 0.72246,0.408957 0.91846,0.730957 0.897,1.476 1.69207,3.016704 2.62207,4.470704 0.238,0.372 0.82616,0.715492 1.26416,0.729492 2.277,0.07 4.55989,-0.0172 6.83789,0.0498 1.019,0.03 1.28191,-0.377246 1.25391,-1.302246 -0.047,-1.556 -0.0132,-3.113711 -0.0132,-4.678711 h 8.45948 c -0.825,9.652 -1.64333,19.215056 -2.46533,28.831056 -2.959,0 -5.70469,-0.03096 -8.45069,0.01904 z m 199.1836,-0.01025 c -3.099,0 -6.039957,0.0207 -8.980957,-0.0293 -0.285,-0.005 -0.652567,-0.381758 -0.830567,-0.676758 -5.371,-8.876 -10.724195,-17.763368 -16.075195,-26.651368 -0.269,-0.447 -0.504004,-0.915664 -0.854004,-1.555664 2.741,0 5.215035,-0.02984 7.686035,0.03516 0.36,0.01 0.827039,0.404071 1.040039,0.747071 0.932,1.502 1.772453,3.060777 2.689453,4.571777 0.178,0.293 0.553286,0.657109 0.842286,0.662109 2.781,0.05 5.56264,0.03076 8.43164,0.03076 0.133,-2.045 0.25679,-3.950644 0.38379,-5.910644 0.466,-0.04 0.811226,-0.09422 1.157226,-0.09521 2.363223,-0.0108 4.726724,-0.02331 7.089844,-0.03076 -0.879844,9.869249 -1.72673,19.344403 -2.57959,28.902833 z m 2.57959,-28.902833 c 1.45e-4,-0.0016 -1.45e-4,-0.0042 0,-0.0059 0.0013,0.0016 0.0031,0.0042 0.0044,0.0059 -0.0014,4e-6 -0.003,-5e-6 -0.0044,0 z m 0.0044,0 c 2.668244,-0.0084 5.336075,-0.01002 8.003906,0.01172 0.475,0.004 1.080461,0.410058 1.397461,0.810058 2.176,2.739 4.377649,5.466708 6.389649,8.324708 1.012,1.438 2.196648,1.527285 3.764648,1.217285 -0.823,-3.434 -1.638305,-6.836883 -2.487305,-10.379883 2.507,0 4.824184,-0.03606 7.138184,0.04394 0.31,0.01 0.776582,0.561965 0.871582,0.938965 1.125,4.454 2.195856,8.922672 3.276856,13.388672 1.163,4.806 2.322117,9.612332 3.495117,14.465332 -0.296,0.03 -0.525859,0.07424 -0.755859,0.07324 -5.032,-0.029 -10.079286,0.172726 -15.092286,-0.155274 -5.629,-0.369 -9.193102,-3.443203 -10.579102,-8.408203 -1.142,-4.092 -0.191609,-6.691028 3.275391,-8.978028 0.047,-0.031 0.04306,-0.138683 0.06006,-0.200683 -2.849819,-3.628496 -5.693754,-7.250705 -8.758301,-11.151856 z m -263.00392,28.869094 c -2.371,-9.588 -4.73751,-19.158043 -7.14551,-28.894043 2.118,0 4.04159,0.08017 5.95459,-0.02783 1.274,-0.073 1.83414,0.298004 2.14014,1.604004 1.398,5.961 2.91514,11.894402 4.39014,17.837402 0.735,2.96 0.73613,2.956801 3.80713,2.945801 1.587,-0.006 3.17411,0 4.89111,0 -1.855,-7.544 -3.65809,-14.873586 -5.49609,-22.350586 2.164,0 4.16713,0.07617 6.16113,-0.02783 1.234,-0.065 1.74899,0.291664 2.04199,1.555664 1.461,6.309 3.04103,12.591836 4.58203,18.881836 0.68,2.778 1.36694,5.553586 2.08594,8.475586 z m 153.290045,0 c -6.289,0.011 -12.576259,0.02921 -18.864259,-0.0088 -0.307,-10e-4 -0.791695,-0.442043 -0.887695,-0.769043 -0.595,-2.033 -1.10109,-4.091625 -1.64209,-6.140625 -1.082,-4.104 -2.156965,-8.222828 -4.313965,-11.923828 -1.119,-1.922 -2.2615,-3.983223 -5.0625,-3.678223 -1.031,-4.271 -2.037102,-8.444649 -3.079102,-12.764649 2.08,0 3.961333,0.03642 5.840333,-0.01758 0.748,-0.022 1.037058,0.261149 1.185058,0.952149 0.311,1.458 0.758602,2.88898 1.016602,4.35498 0.167,0.945 0.59107,1.169227 1.49707,1.157227 4.126,-0.051 8.25386,-0.02569 12.38086,-0.03369 0.334,-10e-4 0.666141,-0.04224 1.119141,-0.07324 -0.493,-2.165 -0.957223,-4.198137 -1.428223,-6.265137 h 6.739746 c 1.062,4.277 2.10657,8.489032 3.18457,12.832032 h -2.881347 c 1.86,7.58 3.661402,14.927625 5.462402,22.265625 -0.126,0.055 -0.196601,0.112793 -0.266601,0.112793 z m 9.087891,-0.01758 c -0.17,-0.643 -0.332793,-1.247027 -0.487793,-1.853027 -1.422,-5.55 -2.776458,-11.118555 -4.293458,-16.643555 -0.666,-2.421 -2.078527,-4.256649 -5.040527,-4.139649 -0.131,-2.636 -0.270508,-4.371332 -0.395508,-6.590332 4.667,-0.306 7.688911,0.778488 9.982911,4.375488 1.372,2.151 2.383851,4.599575 3.172851,7.038575 1.11,3.429 1.853133,6.976844 2.786133,10.464844 0.096,0.36 0.408531,0.928429 0.644531,0.940429 1.621,0.083 3.247231,0.04395 5.011231,0.04395 -1.843,-7.535 -3.637559,-14.883212 -5.497559,-22.491212 2.281,0 4.35727,0.06917 6.42627,-0.02783 1.008,-0.047 1.343059,0.317864 1.560059,1.234864 1.672,7.067 3.391656,14.123106 5.097656,21.183106 0.514,2.128 1.031383,4.256355 1.567383,6.464355 z m -55.256836,-0.0029 c -2.431,-9.578 -4.85976,-19.146098 -7.32276,-28.850098 6.476,0 12.834852,-0.0076 19.193852,0.02344 0.254,0.001 0.668352,0.315105 0.735352,0.558105 0.52,1.883 0.972746,3.784516 1.489746,5.853516 h -12.11719 c 0.363,1.424 0.75412,2.657387 0.974123,3.921387 0.16,0.919 0.537703,1.220707 1.470703,1.199707 2.829,-0.065 5.660235,-0.0463 8.490235,-0.0293 0.345,0.003 0.943094,0.120152 0.996094,0.306152 0.54,1.899 0.990789,3.82418 1.508789,5.90918 h -10.571778 c 0.345,1.357 0.718035,2.552902 0.936035,3.774902 0.149,0.837 0.503543,1.071223 1.331543,1.053223 3.065,-0.067 6.13129,-0.0758 9.19629,-0.0498 0.365,0.003 0.974293,0.285641 1.050293,0.556641 0.531,1.882 0.949828,3.794949 1.423828,5.772949 z M 75.82265,54.835139 c -0.574,-2.411 -1.053285,-4.494965 -1.592285,-6.563965 -0.046,-0.176 -0.485141,-0.349027 -0.744141,-0.353027 -1.686,-0.026 -3.374105,-0.04082 -5.058105,0.01318 -1.334,0.043 -2.094957,0.819094 -2.230957,2.121094 -0.2,1.928 1.085773,4.096066 2.967773,4.393066 2.096,0.33 4.253715,0.266648 6.657715,0.389648 z M -120.484,54.782405 c 0.62625,-0.0087 1.25065,-0.03883 1.86915,-0.111328 1.335,-0.156 1.85938,-1.036399 1.56738,-2.358399 -0.315,-1.424 -1.1361,-2.478847 -2.6001,-2.693847 -1.453,-0.214 -2.94462,-0.172418 -4.64062,-0.253418 0.443,1.821 0.78656,3.340379 1.20556,4.838379 0.068,0.244 0.46724,0.555035 0.71924,0.561035 0.6245,0.0135 1.25314,0.02633 1.87939,0.01758 z m 138.194832,-0.02783 c 1.679,-0.119 2.352071,-1.155695 1.872071,-2.762695 -0.378,-1.267 -1.194883,-2.223258 -2.504883,-2.364258 -1.533,-0.164 -3.09725,-0.03809 -4.78125,-0.03809 0.408,1.57 0.746593,3.017547 1.183593,4.435547 0.094,0.307 0.524243,0.697238 0.823243,0.719238 1.131,0.082 2.276226,0.09025 3.407226,0.01025 z M -175.46691,54.448421 c 1.136,0.027 2.27869,0.0309 3.40869,-0.0791 1.541,-0.151 2.26793,-1.056 2.25293,-2.625 -0.021,-2.325 -1.51217,-4.08557 -3.82617,-4.30957 -1.381,-0.133 -2.78437,-0.02344 -4.35937,-0.02344 0.591,2.265 1.13323,4.419176 1.74023,6.555176 0.063,0.224 0.50969,0.474934 0.78369,0.481934 z m 107.673346,-0.106934 c 0.698,10e-4 1.396734,0 2.302734,0 -0.854,-3.554 -1.651895,-6.859945 -2.441895,-10.168945 -0.391,-1.64 -0.787718,-3.2802 -1.136718,-4.9292 -0.154,-0.727 -0.472625,-1.036601 -1.265625,-1.016601 -2.115,0.053 -4.231618,0.01758 -6.307618,0.01758 -0.06375,0.169687 -0.130378,0.271377 -0.118652,0.310547 2.39e-4,6.18e-4 0.0012,0.0038 0.0015,0.0044 l 0.0015,0.0015 v 0.0015 c 2.927,4 4.428047,8.615106 5.748047,13.308106 0.694,2.467 0.692797,2.466191 3.216797,2.471191 z m -79.136726,-1.195312 c 0.088,-0.021 0.17614,-0.04199 0.26514,-0.06299 V 43.71258 h -5.48584 c 1.79,3.235 3.5057,6.334594 5.2207,9.433595 z m 190.653818,-0.131836 0.301758,-0.0542 V 43.67303 h -5.425781 c 1.771,3.228 3.448023,6.284309 5.124023,9.341309 z M 15.493059,43.662776 c 2.112,-0.078 2.999762,-1.437524 2.280762,-3.436524 -0.432,-1.2 -1.268461,-2.061589 -2.522461,-2.204589 -1.848,-0.21 -3.719344,-0.223055 -5.7773443,-0.331055 0.487,2.005 0.8831643,3.751656 1.3681643,5.472656 0.066,0.236 0.577555,0.475258 0.893555,0.489258 1.251,0.054 2.506324,0.05625 3.757324,0.01025 z m -140.572269,-0.0059 c 1.447,0.012 2.90033,0.02971 4.34033,-0.09229 1.359,-0.115 1.98531,-0.947129 1.94531,-2.307129 -0.048,-1.599 -0.96691,-2.943218 -2.58691,-3.199218 -1.827,-0.289 -3.70402,-0.256 -5.77002,-0.375 0.513,2.038 0.93265,3.779418 1.41065,5.503418 0.058,0.209 0.43064,0.468215 0.66064,0.470215 z m -37.00342,-23.301271 c -1.47866,-0.04956 -2.96155,-0.171953 -4.4458,-0.345703 -16.638,-1.946 -27.94806,-14.9806372 -28.66406,-30.452637 -0.398,-8.591 3.24891,-14.62784 11.21191,-17.86084 4.192,-1.703 8.60924,-2.029864 13.84424,-1.984864 1.428,0.157 3.62892,0.295321 5.79492,0.653321 15.906,2.63 27.02484,16.432489 26.11084,32.5004886 -0.415,7.2880004 -3.93778,12.5360704 -10.77978,15.3720704 -4.24275,1.75875 -8.6363,2.266852 -13.07227,2.118164 z m 62.04639,-0.04102 c -2.96525,0.1055 -5.93886,-0.142528 -8.90186,-0.728028 -11.76,-2.325 -20.23551,-8.845125 -24.60351,-20.20312505 -1.765,-4.58999995 -2.31238,-9.38918395 -1.46338,-14.26318395 1.294,-7.426 6.11795,-11.700856 13.00195,-13.776856 8.681,-2.617 17.25985,-1.636609 25.672854,1.400391 0.349,0.125 0.708129,0.599515 0.807129,0.978515 0.51,1.937 0.944137,3.892192 1.390137,5.846192 0.443,1.937 0.868007,3.879379 1.333007,5.963379 -1.354,-0.619 -2.51073,-1.187105 -3.69873,-1.683105 -4.804997,-2.005 -9.768417,-2.690747 -14.878417,-1.489747 -3.862,0.907 -6.32782,3.710708 -6.73682,7.574708 -0.36,3.3969997 0.18596,6.6690273 1.75196,9.72802727 5.272,10.29600003 18.114656,10.78320373 25.076656,6.15820333 0.566,-0.376 1.107234,-0.7877227 1.740234,-1.2407227 0.922,4.049 1.828551,7.9459101 2.664551,11.8579101 0.064,0.299 -0.281543,0.887856 -0.581543,1.026856 -1.209,0.558 -2.447098,1.094055 -3.725098,1.456055 -2.928,0.8305 -5.883871,1.289031 -8.84912,1.394531 z m 45.760254,-0.0835 c -1.518656,-0.04992 -3.044707,-0.172883 -4.574707,-0.348633 -16.11,-1.85 -28.341071,-15.7116767 -28.122071,-31.867677 0.1,-7.373 4.218953,-13.422445 11.126953,-15.981445 9.289,-3.442 18.527294,-2.587848 27.675294,0.681152 0.28,0.1 0.615152,0.417871 0.681152,0.692871 0.96,4.004 1.878684,8.018399 2.825684,12.108399 -0.183,0.009 -0.230742,0.02672 -0.260742,0.01172 -0.173,-0.092 -0.340695,-0.196039 -0.512695,-0.290039 -4.63,-2.529 -9.555657,-3.725212 -14.847657,-3.366212 -5.583,0.38 -9.382137,3.65888 -9.640137,8.7758796 -0.26,5.123 1.276938,9.73233237 5.085938,13.3403324 6.085,5.766 16.365063,6.211984 23.039063,1.0839844 0.201,-0.154 0.436422,-0.2653828 0.732422,-0.4423828 0.748,3.402 1.488871,6.6955584 2.192871,9.9975584 0.559,2.624 0.544574,2.643797 -1.961426,3.591797 -4.3875,1.6605 -8.883973,2.162461 -13.439942,2.012696 z M -235.8214,19.637873 c -1.241,0.014 -1.65474,-0.378227 -1.92774,-1.532227 -2.459,-10.3929996 -4.97642,-20.7718324 -7.48242,-31.152832 -1.27,-5.264 -2.55097,-10.52477 -3.87597,-15.98877 0.622,0 1.04809,10e-4 1.47509,0 4.284,-0.002 8.57001,0.0217 12.85401,-0.0293 0.906,-0.011 1.27481,0.228367 1.48681,1.151367 0.951,4.131 2.01822,8.236282 2.99122,12.363282 0.18,0.764 0.49902,1.010628 1.27002,0.994628 2.515,-0.049 5.03087,-0.02309 7.54687,-0.03809 3.319,-0.019 6.58855,0.348722 9.78955,1.240722 9.97,2.778 15.76298,10.4258132 15.22998,20.1328132 -0.294,5.3649998 -2.86821,9.0646528 -7.97021,10.9936528 -3.364,1.271 -6.853,1.757363 -10.396,1.797363 -6.996,0.079 -13.99421,-0.0096 -20.99121,0.06738 z m 311.022956,-0.03955 c -9.278,0.002 -18.556961,0.03728 -27.834961,-0.01172 -3.946,-0.021 -7.845915,-0.555535 -11.586915,-1.873535 -7.176,-2.529 -11.799062,-7.268551 -12.914062,-15.0395509 -0.796,-5.549 1.590871,-9.9616839 6.692871,-12.2006839 0.238,-0.105 0.463988,-0.2408047 0.812988,-0.4248047 -5.393,-6.3199995 -10.721781,-12.5650275 -16.300781,-19.1030275 1.009,0 1.703484,5.35e-4 2.396484,-0.0015 4.836,-0.008 9.671348,0.01166 14.506348,-0.04834 1.041,-0.012 1.718836,0.290746 2.381836,1.114746 4.19,5.206 8.433758,10.367739 12.676758,15.531739 0.363,0.442 0.826344,1.090605 1.277344,1.120605 1.894,0.126 3.799883,0.0542 5.879883,0.0542 -1.375,-6.021 -2.696223,-11.810441 -4.053223,-17.752441 0.637,0 1.100918,0.001 1.565918,0 4.128,-10e-4 8.257325,0.05452 12.382325,-0.04248 1.192,-0.028 1.588238,0.34659 1.844238,1.45459 3.185,13.734 6.419278,27.45515343 9.634278,41.181153 0.463,1.973 0.893515,3.954465 1.353515,6.001465 -0.331,0.018 -0.522844,0.03955 -0.714844,0.03955 z m -55.857423,-0.0088 c -5.23,0.01 -10.4604065,0.02814 -15.6914065,-0.0059 -0.393,-0.003 -0.8926914,-0.286192 -1.1586914,-0.596192 -6.45,-7.523 -12.8777111,-15.0639338 -19.3037111,-22.6069338 -1.513,-1.777 -3.00579,-3.5709337 -4.50879,-5.3569337 l -0.183105,0.1069336 c 2.211,9.44999996 4.422926,18.9015749 6.648926,28.4135749 h -15.418946 c -3.8,-16.176 -7.587231,-32.295286 -11.386231,-48.467286 0.287,-0.046 0.476504,-0.101539 0.666504,-0.102539 5.191,-0.01 10.381755,-0.02775 15.572755,0.01025 0.386,0.003 0.866183,0.327997 1.138183,0.645997 7.875,9.2 15.7298447,18.4188128 23.58984467,27.63281276 0.218,0.256 0.45894142,0.49181643 0.68994142374,0.7368164275 C 0.06740609,-0.03182281 0.13601938,-0.0645025 0.20301938,-0.0965025 -2.0279806,-9.7065025 -4.2590784,-19.316253 -6.5220784,-29.065253 h 1.3916016 c 4.20799995,0.004 8.4170237,0.04282 12.6240237,-0.01318 0.983,-0.014 1.3318047,0.288328 1.5498047,1.236328 2.9710004,12.941 5.9861404,25.8712474 8.9941404,38.802247 0.656,2.822 1.330231,5.639926 2.011231,8.523926 -0.331,0.052 -0.51759,0.105469 -0.70459,0.105469 z M 58.064349,9.4454899 c -0.162,-0.793 -0.25593,-1.3203086 -0.37793,-1.8413086 -0.646,-2.748 -1.279215,-5.4998166 -1.970215,-8.23681663 -0.094,-0.36999997 -0.485746,-0.95214847 -0.739746,-0.95214847 -3.802,0.004 -7.608273,0.00536 -11.405273,0.1933594 -1.726,0.086 -3.372559,0.76288677 -3.997559,2.6088868 -0.661,1.955 -0.04395,3.7111407 1.248047,5.2441407 1.217,1.444 2.827879,2.4057852 4.650879,2.5297852 4.133,0.282 8.282797,0.3141016 12.591797,0.4541016 z m -222.109869,-0.46875 c 0.97489,0.039953 1.98093,-0.029363 3.01318,-0.2036133 3.626,-0.611 5.82885,-3.1957775 6.06885,-7.1967775 0.325,-5.437 -1.07194,-10.4748988 -4.16894,-14.9208991 -3.055,-4.384 -7.38699,-6.236031 -12.70899,-5.332031 -3.664,0.623 -5.92595,3.237613 -6.25195,6.953613 -0.058,0.662 -0.007,1.333977 -0.007,2.000977 0.301,5.803 1.8195,11.1547582 6.1875,15.3017582 2.292,2.1765 4.94301,3.2771133 7.86768,3.3969727 z m -59.58399,-0.2241211 c 2.276,-0.005 4.56125,0.038078 6.82325,-0.1699219 2.969,-0.272 4.36612,-1.9773556 4.34912,-4.9643556 -0.024,-4.19899996 -2.5123,-7.1895861 -6.8833,-7.7255861 -2.58,-0.317 -5.23204,-0.057129 -8.06104,-0.057129 0.998,4.16400000214 1.96203,8.244012 2.97803,12.312012 0.065,0.261 0.52094,0.6059805 0.79394,0.6049806 z"
     transform="matrix(0.12950956,0,0,-0.12950956,32.261807,37.572546)" />
</svg>
