<?xml version="1.0" encoding="UTF-8" standalone="no"?>
<!-- Created with Inkscape (http://www.inkscape.org/) -->

<svg
   version="1.1"
   id="svg2"
   width="171.52"
   height="169.28"
   viewBox="0 0 171.52 169.28"
   sodipodi:docname="Логотип_Яблоко_маленький_прозрачный.svg"
   inkscape:version="1.1.2 (b8e25be833, 2022-02-05)"
   xmlns:inkscape="http://www.inkscape.org/namespaces/inkscape"
   xmlns:sodipodi="http://sodipodi.sourceforge.net/DTD/sodipodi-0.dtd"
   xmlns="http://www.w3.org/2000/svg"
   xmlns:svg="http://www.w3.org/2000/svg">
  <defs
     id="defs6" />
  <sodipodi:namedview
     id="namedview4"
     pagecolor="#ffffff"
     bordercolor="#111111"
     borderopacity="1"
     inkscape:pageshadow="0"
     inkscape:pageopacity="0"
     inkscape:pagecheckerboard="1"
     showgrid="false"
     showguides="false"
     inkscape:zoom="1.459121"
     inkscape:cx="99.032226"
     inkscape:cy="62.366315"
     inkscape:window-width="1366"
     inkscape:window-height="700"
     inkscape:window-x="0"
     inkscape:window-y="0"
     inkscape:window-maximized="1"
     inkscape:current-layer="g8" />
  <g
     inkscape:groupmode="layer"
     inkscape:label="Image"
     id="g8">
    <g
       id="g5380"
       transform="translate(-0.23242376,-0.20715722)">
      <path
         style="fill:#d42d52;stroke-width:0.32"
         d="M 84.32,168.47645 C 58.057469,164.76658 36.497517,149.45764 25.288021,126.56 19.794309,115.33799 17.458884,105.11714 17.464314,92.32 c 0.0028,-6.545334 0.290512,-9.607501 1.458329,-15.52 0.578714,-2.929955 2.679279,-10.508589 3.002147,-10.831456 0.09655,-0.09655 27.962708,12.634182 28.251888,12.906954 0.05317,0.05015 -0.232451,1.727686 -0.63472,3.727846 -0.618777,3.076685 -0.730147,4.622125 -0.723286,10.036656 0.0087,6.890538 0.482662,10.15198 2.255258,15.52 4.955625,15.00731 17.765079,26.38541 33.312518,29.59009 3.275979,0.67525 6.608885,1.00369 9.925655,0.99859 C 103.52025,138.73453 112.60402,136.14963 120,131.27812 133.79551,122.19143 141.47518,105.58607 139.90437,88.24 138.83668,76.449843 134.52195,66.925795 126.7448,59.192464 119.17913,51.669411 109.80101,47.404557 98.495696,46.345706 c -5.186518,-0.485767 -10.793555,-0.01456 -16.291558,1.369161 -2.124967,0.5348 -3.910103,0.925735 -3.96697,0.868749 C 78.117766,48.463955 65.6,21.410787 65.6,21.272393 c 0,-0.262021 5.795446,-2.131215 9.285565,-2.994856 13.904928,-3.44082 27.115075,-3.302004 40.720055,0.427897 17.75139,4.866669 32.92808,15.875475 43.26342,31.382249 6.17948,9.271459 10.75075,22.061338 12.00271,33.582195 0.50606,4.656852 0.42631,14.105252 -0.15685,18.581902 -3.38247,25.96587 -18.80097,47.6217 -41.9149,58.87096 -7.25301,3.52994 -13.43141,5.52581 -21.44,6.92595 -5.02222,0.87803 -18.129741,1.12139 -23.04,0.42776 z"
         id="path5382"
         sodipodi:nodetypes="sscsssscssssssssssssssssss" />
      <path
         style="fill:#fbf2f4;stroke-width:0.32"
         d="M 61.899869,125.36 60.96,124.32 62,125.25987 c 0.969427,0.87609 1.187088,1.14013 0.939869,1.14013 -0.05507,0 -0.523072,-0.468 -1.04,-1.04 z"
         id="path5414"
         sodipodi:nodetypes="scsss" />
      <path
         style="fill:#f8e6ea;stroke-width:0.32"
         d="m 93.04,15.46807 c 0.22,-0.08877 0.58,-0.08877 0.8,0 0.22,0.08877 0.04,0.161404 -0.4,0.161404 -0.44,0 -0.62,-0.07263 -0.4,-0.161404 z m 1.92,0 c 0.22,-0.08877 0.58,-0.08877 0.8,0 0.22,0.08877 0.04,0.161404 -0.4,0.161404 -0.44,0 -0.62,-0.07263 -0.4,-0.161404 z"
         id="path5410" />
      <path
         style="fill:#88c58a;stroke-width:0.32"
         d="m 0.32296307,42.56 c -0.0334044,-28.386369 -0.0167022,-14.193185 0,0 z"
         id="path5394"
         sodipodi:nodetypes="cc" />
      <path
         style="fill:#5aaf5c;stroke-width:0.32"
         d="M 41.106963,61.572771 C 20.346133,51.980784 2.671876,43.814918 1.8308355,43.4264 L 0.30167097,42.72 21.531244,21.500489 42.760816,0.28097781 60.917533,39.536698 c 9.986195,21.590646 18.107142,39.305292 18.046553,39.365881 -0.06059,0.06059 -17.096294,-7.737824 -37.857123,-17.329808 z"
         id="path5386" />
    </g>
  </g>
</svg>
